<?xml version="1.0" encoding="utf-8"?>
<svg xmlns="http://www.w3.org/2000/svg" width="100%" height="100%" fill="#fff" fill-rule="evenodd" viewBox="0 0 1050 300" focusable="false" class="chakra-icon custom-euf446" xmlns:bx="https://boxy-svg.com">
  <defs>
    <linearGradient id="paint0_linear_2261_1248" x1="12.5" y1="14" x2="66" y2="60" gradientUnits="userSpaceOnUse" gradientTransform="matrix(2.42119, 1.79795, -3.02307, 1.2273, 922.733, 26.5758)">
      <stop style="stop-color: rgb(79, 140, 239);"/>
      <stop offset="1" style="stop-color: rgb(20, 38, 67);"/>
    </linearGradient>
    <linearGradient id="paint1_linear_2261_1248" x1="12.5" y1="14" x2="66" y2="60" gradientUnits="userSpaceOnUse" gradientTransform="matrix(-2.2605, -2.66318, 3.14271, -1.75095, 876.026, 297.484)">
      <stop style="stop-color: rgb(255, 133, 51);"/>
      <stop offset="1" style=""/>
    </linearGradient>
    <bx:export>
      <bx:file format="svg"/>
      <bx:file format="png" path="Untitled 8.png" excluded="true"/>
      <bx:file format="svg" href="#object-0" path="Untitled 2.svg" excluded="true"/>
      <bx:file format="svg" href="#object-1" path="Untitled 3.svg" excluded="true"/>
      <bx:file format="svg" href="#object-2" path="Untitled 4.svg" excluded="true"/>
      <bx:file format="svg" href="#object-3" path="Untitled 5.svg" excluded="true"/>
      <bx:file format="svg" href="#object-4" path="Untitled 6.svg" excluded="true"/>
      <bx:file format="svg" href="#object-5" path="Untitled 7.svg" excluded="true"/>
      <bx:file format="svg" href="#object-6" path="Untitled 8.svg" excluded="true"/>
      <bx:file format="png" href="#object-0"/>
      <bx:file format="png" href="#object-1" path="Untitled 2.png"/>
      <bx:file format="png" href="#object-2" path="Untitled 3.png"/>
      <bx:file format="png" href="#object-3" path="Untitled 4.png"/>
      <bx:file format="png" href="#object-4" path="Untitled 5.png"/>
      <bx:file format="png" href="#object-5" path="Untitled 6.png"/>
      <bx:file format="png" href="#object-6" path="Untitled 7.png"/>
    </bx:export>
  </defs>
  <path d="M151.818 106.866c9.177-4.576 20.854-11.312 32.545-20.541 2.465 5.119 2.735 9.586 1.465 13.193-.9 2.542-2.596 4.753-4.826 6.512-2.415 1.901-5.431 3.285-8.765 4.033-6.326 1.425-13.712.593-20.419-3.197m1.591 46.886l12.148 7.017c-24.804 13.902-31.547 39.716-39.557 64.859-8.009-25.143-14.753-50.957-39.556-64.859l12.148-7.017a5.95 5.95 0 003.84-5.845c-1.113-23.547 5.245-33.96 13.821-40.498 3.076-2.342 6.434-3.518 9.747-3.518s6.671 1.176 9.748 3.518c8.576 6.538 14.934 16.951 13.821 40.498a5.95 5.95 0 003.84 5.845zM126 0c14.042.377 28.119 3.103 40.336 8.406 8.46 3.677 16.354 8.534 23.502 14.342 3.228 2.622 5.886 5.155 8.814 8.071 7.897.273 19.438-8.5 24.796-16.709-9.221 30.23-51.299 65.929-80.43 79.589-.012-.005-.02-.012-.029-.018-5.228-3.992-11.108-5.988-16.989-5.988s-11.76 1.996-16.988 5.988c-.009.005-.017.014-.029.018-29.132-13.66-71.209-49.359-80.43-79.589 5.357 8.209 16.898 16.982 24.795 16.709 2.929-2.915 5.587-5.449 8.814-8.071C69.31 16.94 77.204 12.083 85.664 8.406 97.882 3.103 111.959.377 126 0m-25.818 106.866c-9.176-4.576-20.854-11.312-32.544-20.541-2.465 5.119-2.735 9.586-1.466 13.193.901 2.542 2.597 4.753 4.826 6.512 2.416 1.901 5.432 3.285 8.766 4.033 6.326 1.425 13.711.593 20.418-3.197" id="object-0"/>
  <path d="M197.167 75.016c6.436-6.495 12.107-13.684 16.667-20.099l2.316 4.359c7.456 14.917 11.33 29.774 11.33 46.494l-.016 26.532.14 13.754c.54 33.766 7.846 67.929 24.396 99.193l-34.627-27.922-24.501 39.759-25.74-24.231L126 299.604l-41.132-66.748-25.739 24.231-24.501-39.759L0 245.25c16.55-31.264 23.856-65.427 24.397-99.193l.14-13.754-.016-26.532c0-16.721 3.873-31.578 11.331-46.494l2.315-4.359c4.56 6.415 10.23 13.603 16.667 20.099l-2.01 4.175c-3.905 8.109-5.198 17.176-2.156 25.799 1.961 5.554 5.54 10.317 10.154 13.953 4.48 3.531 9.782 5.911 15.333 7.161 3.616.814 7.3 1.149 10.96 1.035-.854 4.841-1.227 9.862-1.251 14.978L53.2 160.984l25.206 14.129a41.926 41.926 0 015.734 3.869c20.781 18.658 33.275 73.855 41.861 100.816 8.587-26.961 21.08-82.158 41.862-100.816a41.865 41.865 0 015.734-3.869l25.206-14.129-32.665-18.866c-.024-5.116-.397-10.137-1.251-14.978 3.66.114 7.344-.221 10.96-1.035 5.551-1.25 10.854-3.63 15.333-7.161 4.613-3.636 8.193-8.399 10.153-13.953 3.043-8.623 1.749-17.689-2.155-25.799l-2.01-4.175z" id="object-1"/>
  <path fill-rule="evenodd" clip-rule="evenodd" d="M 895.898 2.387 C 977.297 2.387 1043.28 68.368 1043.28 149.762 C 1043.28 231.157 977.297 297.138 895.898 297.138 C 814.504 297.138 748.523 231.157 748.523 149.762 C 748.523 68.368 814.504 2.387 895.898 2.387 Z" style="stroke: rgb(255, 133, 51); fill: rgba(34, 44, 59, 0); stroke-width: 2px;" id="object-2"/>
  <path d="M 857.801 72.197 C 854.547 72.197 851.546 73.981 849.94 76.87 L 810.789 147.377 C 810.715 147.509 810.642 147.645 810.575 147.785 L 858.181 147.785 C 859.76 147.785 861.246 148.548 862.18 149.845 L 869.844 160.443 L 885.349 102.777 C 886.765 97.506 894.223 97.937 895.053 103.332 L 906.66 178.919 L 918.369 131.613 C 919.459 127.218 925.218 126.377 927.471 130.282 L 937.575 147.785 L 985.097 147.785 C 985.037 147.653 984.967 147.521 984.897 147.393 L 945.944 76.889 C 944.342 73.988 941.332 72.197 938.071 72.197 L 857.801 72.197 Z" fill="url(#paint0_linear_2261_1248)" style="paint-order: fill; fill-rule: nonzero;" id="object-3"/>
  <path d="M 984.587 157.003 L 935.251 157.003 C 933.49 157.003 931.861 156.053 930.969 154.506 L 924.706 143.662 L 910.547 200.879 C 909.224 206.231 901.657 205.874 900.82 200.421 L 889.057 123.84 L 876.344 171.132 C 875.247 175.216 870.014 176.209 867.548 172.799 L 856.13 157.003 L 811.091 157.003 L 849.936 226.553 C 851.546 229.431 854.54 231.207 857.79 231.207 L 938.087 231.207 C 941.34 231.207 944.342 229.423 945.947 226.534 L 984.587 157.003 Z" fill="url(#paint1_linear_2261_1248)" style="" id="object-4"/>
  <circle cx="798.941" cy="52.805" r="31.026" style="fill: rgb(255, 133, 51);" id="object-5"/>
  <text style="fill: rgb(255, 255, 255); font-family: Arial, sans-serif; font-size: 73.7px; white-space: pre;" x="779.991" y="74.686" id="object-6">v</text>
</svg>