<?xml version="1.0" encoding="utf-8"?>
<svg xmlns="http://www.w3.org/2000/svg" width="100%" height="100%" fill="#fff" fill-rule="evenodd" viewBox="0 0 1050 300" focusable="false" class="chakra-icon custom-euf446" xmlns:bx="https://boxy-svg.com">
  <defs>
    <bx:export>
      <bx:file format="svg" excluded="true"/>
      <bx:file format="png" path="Untitled 8.png" excluded="true"/>
      <bx:file format="png" path="Untitled 3.png" excluded="true"/>
      <bx:file format="svg" path="Untitled 4.svg" excluded="true"/>
      <bx:file format="svg" path="Untitled 5.svg" width="1050" height="300"/>
      <bx:file format="svg" href="#object-0" path="Untitled 2.svg" excluded="true"/>
      <bx:file format="svg" href="#object-1" path="Untitled 3.svg" excluded="true"/>
      <bx:file format="png" href="#object-0"/>
      <bx:file format="png" href="#object-1" path="Untitled 2.png"/>
    </bx:export>
  </defs>
  <path d="M151.818 106.866c9.177-4.576 20.854-11.312 32.545-20.541 2.465 5.119 2.735 9.586 1.465 13.193-.9 2.542-2.596 4.753-4.826 6.512-2.415 1.901-5.431 3.285-8.765 4.033-6.326 1.425-13.712.593-20.419-3.197m1.591 46.886l12.148 7.017c-24.804 13.902-31.547 39.716-39.557 64.859-8.009-25.143-14.753-50.957-39.556-64.859l12.148-7.017a5.95 5.95 0 003.84-5.845c-1.113-23.547 5.245-33.96 13.821-40.498 3.076-2.342 6.434-3.518 9.747-3.518s6.671 1.176 9.748 3.518c8.576 6.538 14.934 16.951 13.821 40.498a5.95 5.95 0 003.84 5.845zM126 0c14.042.377 28.119 3.103 40.336 8.406 8.46 3.677 16.354 8.534 23.502 14.342 3.228 2.622 5.886 5.155 8.814 8.071 7.897.273 19.438-8.5 24.796-16.709-9.221 30.23-51.299 65.929-80.43 79.589-.012-.005-.02-.012-.029-.018-5.228-3.992-11.108-5.988-16.989-5.988s-11.76 1.996-16.988 5.988c-.009.005-.017.014-.029.018-29.132-13.66-71.209-49.359-80.43-79.589 5.357 8.209 16.898 16.982 24.795 16.709 2.929-2.915 5.587-5.449 8.814-8.071C69.31 16.94 77.204 12.083 85.664 8.406 97.882 3.103 111.959.377 126 0m-25.818 106.866c-9.176-4.576-20.854-11.312-32.544-20.541-2.465 5.119-2.735 9.586-1.466 13.193.901 2.542 2.597 4.753 4.826 6.512 2.416 1.901 5.432 3.285 8.766 4.033 6.326 1.425 13.711.593 20.418-3.197" id="object-0" style="fill: rgb(103, 103, 108);"/>
  <path d="M197.167 75.016c6.436-6.495 12.107-13.684 16.667-20.099l2.316 4.359c7.456 14.917 11.33 29.774 11.33 46.494l-.016 26.532.14 13.754c.54 33.766 7.846 67.929 24.396 99.193l-34.627-27.922-24.501 39.759-25.74-24.231L126 299.604l-41.132-66.748-25.739 24.231-24.501-39.759L0 245.25c16.55-31.264 23.856-65.427 24.397-99.193l.14-13.754-.016-26.532c0-16.721 3.873-31.578 11.331-46.494l2.315-4.359c4.56 6.415 10.23 13.603 16.667 20.099l-2.01 4.175c-3.905 8.109-5.198 17.176-2.156 25.799 1.961 5.554 5.54 10.317 10.154 13.953 4.48 3.531 9.782 5.911 15.333 7.161 3.616.814 7.3 1.149 10.96 1.035-.854 4.841-1.227 9.862-1.251 14.978L53.2 160.984l25.206 14.129a41.926 41.926 0 015.734 3.869c20.781 18.658 33.275 73.855 41.861 100.816 8.587-26.961 21.08-82.158 41.862-100.816a41.865 41.865 0 015.734-3.869l25.206-14.129-32.665-18.866c-.024-5.116-.397-10.137-1.251-14.978 3.66.114 7.344-.221 10.96-1.035 5.551-1.25 10.854-3.63 15.333-7.161 4.613-3.636 8.193-8.399 10.153-13.953 3.043-8.623 1.749-17.689-2.155-25.799l-2.01-4.175z" id="object-1" style="fill: rgb(103, 103, 108);"/>
  <g transform="matrix(4.68804, 0, 0, 4.68804, 101.489, -435.703)" style="">
    <g fill="#ff8533" class="iconsvg-imagesvg" transform="translate(138.15541977473003,93.1554183959961)">
      <rect fill="#333" fill-opacity="0" stroke-width="2" x="0" y="0" width="63.689164830763055" height="63.689164830763055" class="image-rect"/>
      <svg viewBox="0 0 60 59.89578134046758" x="0" y="0" width="63.689164830763055" height="63.689164830763055" class="image-svg-svg bn" style="overflow: visible;">
        <g hollow-target="">
          <g>
            <svg xmlns="http://www.w3.org/2000/svg" viewBox="-0.00001 0 65.00002 64.887" style="overflow: visible;" width="60" height="59.89578134046758" x="0" y="0" filtersec="colorsb8094428226" filter="url(#Ml04VvttAVG0x0hRmfQte)">
              <g transform="scale(1, 1) skewX(0)">
                <path d="M29.969 4.238l.44-.04V0l-.52.042c-8.113.65-15.645 4.31-21.21 10.309A32.385 32.385 0 0 0 0 32.444a32.389 32.389 0 0 0 8.678 22.093c5.564 5.997 13.098 9.658 21.21 10.309l.52.041v-4.214l-.44-.04c-7.007-.622-13.507-3.835-18.304-9.047A28.226 28.226 0 0 1 4.18 32.429c0-7.11 2.66-13.91 7.485-19.15C16.46 8.07 22.96 4.859 29.97 4.238m26.352 6.113C50.758 4.353 43.224.69 35.112.04L34.593 0v4.198l.44.04c7.007.622 13.507 3.836 18.304 9.048a28.225 28.225 0 0 1 7.483 19.157c0 7.109-2.658 13.912-7.483 19.157-4.796 5.213-11.296 8.426-18.304 9.048l-.44.039v4.198l.52-.042c8.113-.65 15.645-4.311 21.21-10.309A32.39 32.39 0 0 0 65 32.441a32.387 32.387 0 0 0-8.678-22.092" fill-rule="nonzero" style=""/>
              </g>
            </svg>
          </g>
          <g>
            <svg xmlns="http://www.w3.org/2000/svg" viewBox="0 -0.020796293392777443 100.0036849975586 100.14386749267578" width="47.599999999999994" height="47.5173188" x="6.200000000000003" y="6.18923127023379" class="image-svg-icon">
              <path d="M0 50c0-.81 0-1.63.06-2.44a1.62 1.62 0 0 0 0-.22 50 50 0 0 1 94.08-20.83.25.25 0 0 1 0 .07c.65 1.22 1.25 2.48 1.8 3.76L69.1 57.22a2.22 2.22 0 0 1-3.11.05l-24.7-23a13.7 13.7 0 0 0-19.12.33l-14 14-7.76 7.73A49.44 49.44 0 0 1 0 50z" fill="#4f8cef"/>
              <path d="M3.83 69.21l6.33-6.34 20.16-20.15a2.23 2.23 0 0 1 3.11-.06l24.7 23a13.71 13.71 0 0 0 19.12-.33l22.26-22.22A48 48 0 0 1 100 50v2.28a1.36 1.36 0 0 1 0 .2A50 50 0 0 1 5.82 73.43a.14.14 0 0 1 0-.06c-.75-1.37-1.4-2.75-1.99-4.16z" fill="#ff8533"/>
            </svg>
          </g>
        </g>
      </svg>
    </g>
  </g>
</svg>