<?xml version="1.0" encoding="utf-8"?>
<svg xmlns="http://www.w3.org/2000/svg" width="100%" height="100%" fill="#fff" fill-rule="evenodd" viewBox="0 0 1050 300" focusable="false" class="chakra-icon custom-euf446" xmlns:bx="https://boxy-svg.com">
  <defs>
    <bx:export>
      <bx:file format="svg"/>
      <bx:file format="png" path="Untitled 8.png" excluded="true"/>
      <bx:file format="svg" href="#object-0" path="Untitled 2.svg" excluded="true"/>
      <bx:file format="svg" href="#object-1" path="Untitled 3.svg" excluded="true"/>
      <bx:file format="png" href="#object-0"/>
      <bx:file format="png" href="#object-1" path="Untitled 2.png"/>
    </bx:export>
    <linearGradient id="gradient-1" x1="12.5" y1="14" x2="66" y2="60" gradientUnits="userSpaceOnUse" gradientTransform="matrix(2.437901, 1.810352, -3.043928, 1.235763, 926.49707, 25.937757)">
      <stop style="stop-color: rgb(79, 140, 239);"/>
      <stop offset="1" style="stop-color: rgb(20, 38, 67);"/>
    </linearGradient>
    <linearGradient id="gradient-2" x1="12.5" y1="14" x2="66" y2="60" gradientUnits="userSpaceOnUse" gradientTransform="matrix(-2.276094, -2.681549, 3.1644, -1.763037, 879.468201, 298.715546)">
      <stop style="stop-color: rgb(255, 133, 51);"/>
      <stop offset="1" style=""/>
    </linearGradient>
    <bx:export>
      <bx:file format="png" path="vPLS78.png" excluded="true"/>
      <bx:file format="png" path="vPLS.png" excluded="true">
        <bx:variant scale="2" suffix="@2x"/>
        <bx:variant scale="3" suffix="@3x"/>
        <bx:variant scale="4" suffix="@4x"/>
        <bx:variant scale="5" suffix="@5x"/>
        <bx:variant scale="6" suffix="@6x"/>
      </bx:file>
      <bx:file format="png" path="vPLS_Trans.png">
        <bx:variant scale="1.923" suffix="150"/>
        <bx:variant scale="3.2" suffix="250"/>
        <bx:variant scale="6.41" suffix="500"/>
      </bx:file>
    </bx:export>
  </defs>
  <path d="M151.818 106.866c9.177-4.576 20.854-11.312 32.545-20.541 2.465 5.119 2.735 9.586 1.465 13.193-.9 2.542-2.596 4.753-4.826 6.512-2.415 1.901-5.431 3.285-8.765 4.033-6.326 1.425-13.712.593-20.419-3.197m1.591 46.886l12.148 7.017c-24.804 13.902-31.547 39.716-39.557 64.859-8.009-25.143-14.753-50.957-39.556-64.859l12.148-7.017a5.95 5.95 0 003.84-5.845c-1.113-23.547 5.245-33.96 13.821-40.498 3.076-2.342 6.434-3.518 9.747-3.518s6.671 1.176 9.748 3.518c8.576 6.538 14.934 16.951 13.821 40.498a5.95 5.95 0 003.84 5.845zM126 0c14.042.377 28.119 3.103 40.336 8.406 8.46 3.677 16.354 8.534 23.502 14.342 3.228 2.622 5.886 5.155 8.814 8.071 7.897.273 19.438-8.5 24.796-16.709-9.221 30.23-51.299 65.929-80.43 79.589-.012-.005-.02-.012-.029-.018-5.228-3.992-11.108-5.988-16.989-5.988s-11.76 1.996-16.988 5.988c-.009.005-.017.014-.029.018-29.132-13.66-71.209-49.359-80.43-79.589 5.357 8.209 16.898 16.982 24.795 16.709 2.929-2.915 5.587-5.449 8.814-8.071C69.31 16.94 77.204 12.083 85.664 8.406 97.882 3.103 111.959.377 126 0m-25.818 106.866c-9.176-4.576-20.854-11.312-32.544-20.541-2.465 5.119-2.735 9.586-1.466 13.193.901 2.542 2.597 4.753 4.826 6.512 2.416 1.901 5.432 3.285 8.766 4.033 6.326 1.425 13.711.593 20.418-3.197" id="object-0" style=""/>
  <path d="M197.167 75.016c6.436-6.495 12.107-13.684 16.667-20.099l2.316 4.359c7.456 14.917 11.33 29.774 11.33 46.494l-.016 26.532.14 13.754c.54 33.766 7.846 67.929 24.396 99.193l-34.627-27.922-24.501 39.759-25.74-24.231L126 299.604l-41.132-66.748-25.739 24.231-24.501-39.759L0 245.25c16.55-31.264 23.856-65.427 24.397-99.193l.14-13.754-.016-26.532c0-16.721 3.873-31.578 11.331-46.494l2.315-4.359c4.56 6.415 10.23 13.603 16.667 20.099l-2.01 4.175c-3.905 8.109-5.198 17.176-2.156 25.799 1.961 5.554 5.54 10.317 10.154 13.953 4.48 3.531 9.782 5.911 15.333 7.161 3.616.814 7.3 1.149 10.96 1.035-.854 4.841-1.227 9.862-1.251 14.978L53.2 160.984l25.206 14.129a41.926 41.926 0 015.734 3.869c20.781 18.658 33.275 73.855 41.861 100.816 8.587-26.961 21.08-82.158 41.862-100.816a41.865 41.865 0 015.734-3.869l25.206-14.129-32.665-18.866c-.024-5.116-.397-10.137-1.251-14.978 3.66.114 7.344-.221 10.96-1.035 5.551-1.25 10.854-3.63 15.333-7.161 4.613-3.636 8.193-8.399 10.153-13.953 3.043-8.623 1.749-17.689-2.155-25.799l-2.01-4.175z" id="object-1" style=""/>
  <path fill-rule="evenodd" clip-rule="evenodd" d="M 899.48 1.582 C 981.435 1.582 1047.87 68.018 1047.87 149.973 C 1047.87 231.928 981.435 298.365 899.48 298.365 C 817.525 298.365 751.088 231.928 751.088 149.973 C 751.088 68.018 817.525 1.582 899.48 1.582 Z" style="stroke: rgb(255, 133, 51); stroke-width: 2; fill: none; transform-box: fill-box; transform-origin: 50% 50%;" transform="matrix(0.999955, -0.009449, 0.009449, 0.999955, 0, 0)"/>
  <path d="M 861.12 71.871 C 857.844 71.871 854.818 73.671 853.204 76.58 L 813.784 147.572 C 813.705 147.709 813.635 147.844 813.568 147.981 L 861.503 147.981 C 863.093 147.981 864.585 148.75 865.53 150.058 L 873.246 160.73 L 888.858 102.663 C 890.284 97.36 897.793 97.789 898.629 103.221 L 910.316 179.331 L 922.106 131.698 C 923.199 127.276 928.998 126.425 931.267 130.358 L 941.444 147.981 L 989.296 147.981 C 989.23 147.849 989.16 147.72 989.091 147.591 L 949.871 76.596 C 948.259 73.68 945.229 71.871 941.944 71.871 L 861.12 71.871 Z" fill="url(#gradient-1)" style="paint-order: fill; fill-rule: nonzero; stroke-width: 1;"/>
  <path d="M 988.778 157.263 L 939.104 157.263 C 937.332 157.263 935.691 156.307 934.789 154.749 L 928.486 143.83 L 914.23 201.441 C 912.894 206.831 905.276 206.477 904.432 200.984 L 892.588 123.875 L 879.786 171.49 C 878.682 175.603 873.415 176.602 870.934 173.169 L 859.434 157.263 L 814.085 157.263 L 853.201 227.293 C 854.818 230.192 857.837 231.979 861.106 231.979 L 941.959 231.979 C 945.236 231.979 948.259 230.184 949.875 227.277 L 988.778 157.263 Z" fill="url(#gradient-2)" style="stroke-width: 1;"/>
  <circle cx="798.729" cy="93.212" r="31.24" style="fill: rgb(255, 133, 51); stroke-width: 1;"/>
  <text style="fill: rgb(255, 255, 255); font-family: Arial, sans-serif; font-size: 74.3px; white-space: pre; stroke-width: 1;" x="779.648" y="115.245">v</text>
</svg>